<?xml version="1.0" encoding="utf-8"?>
<!-- Generator: Adobe Illustrator 16.0.0, SVG Export Plug-In . SVG Version: 6.00 Build 0)  -->
<!DOCTYPE svg PUBLIC "-//W3C//DTD SVG 1.1//EN" "http://www.w3.org/Graphics/SVG/1.1/DTD/svg11.dtd">
<svg version="1.1" id="图层_1" xmlns="http://www.w3.org/2000/svg" xmlns:xlink="http://www.w3.org/1999/xlink" x="0px" y="0px"
	 width="138px" height="82px" viewBox="0 0 138 82" enable-background="new 0 0 138 82" xml:space="preserve">
<path fill="#F3F3F4" d="M127.101,34.789h-18.158c-2.987-19.165-19.559-33.83-39.559-33.83c-20,0-36.574,14.665-39.559,33.83H10.899
	c-3.588,0-6.498,2.908-6.498,6.499c0,3.587,2.91,6.498,6.498,6.498h16.437c1.267,0,2.293,1.025,2.293,2.294
	c0,1.266-1.026,2.292-2.293,2.292h-2.771c-2.006,0-3.631,1.625-3.631,3.632c0,2.006,1.625,3.632,3.631,3.632h9.379
	C40.65,72.359,54,81.041,69.383,81.041c15.074,0,28.197-8.333,35.027-20.642h18.058c2.084,0,3.774-1.69,3.774-3.775
	s-1.69-3.773-3.774-3.773h-9.891c-1.397,0-2.534-1.135-2.534-2.533c0-1.399,1.137-2.532,2.534-2.532h14.523
	c3.591,0,6.499-2.91,6.499-6.498C133.6,37.697,130.691,34.789,127.101,34.789z"/>
<g>
	<path fill="#C6C6C6" d="M88.846,34.498c-1.751-2.171-4.191-3.482-6.855-3.691c-0.145-0.009-0.289-0.016-0.443-0.024
		c-0.222-0.03-0.459,0.009-0.681,0.111c-0.646,0.305-0.925,1.072-0.627,1.719c0.207,0.452,0.649,0.752,1.14,0.76
		c0.153,0.008,0.281,0.017,0.413,0.022c1.958,0.157,3.764,1.134,5.071,2.754c1.287,1.598,1.938,3.668,1.783,5.684
		c-0.052,0.713,0.478,1.333,1.179,1.387h0.099c0.66,0,1.218-0.521,1.278-1.201C91.411,39.343,90.543,36.606,88.846,34.498
		L88.846,34.498z"/>
	<path fill="#C6C6C6" d="M95.651,27.705c-2.729-2.846-6.319-4.459-10.131-4.543c-3.512-5.529-9.595-8.925-16.12-8.925
		c-8.731,0-16.292,5.962-18.509,14.383c-2.671,0.348-5.158,1.621-7.108,3.682c-2.274,2.397-3.521,5.53-3.521,8.81
		c0,3.285,1.247,6.41,3.521,8.809c2.295,2.418,5.323,3.755,8.537,3.77v0.043l33.353-0.026l0.007-0.037
		c3.754-0.127,7.287-1.714,9.979-4.541c2.771-2.908,4.301-6.716,4.301-10.716C99.959,34.404,98.43,30.605,95.651,27.705z
		 M85.538,49.877l-32.764,0.054c-0.129-0.027-0.26-0.044-0.391-0.044c-4.537,0-8.363-4.016-8.363-8.774
		c0-4.747,3.803-8.748,8.317-8.771c0.024,0.009,0.055,0.023,0.077,0.023h1.562l0.283-1.567c1.362-7.38,7.727-12.753,15.151-12.753
		c5.555,0,10.704,3.055,13.434,7.97l0.574,1.032l1.165-0.063c0.19-0.014,0.381-0.014,0.618-0.014
		c5.974,0,11.018,5.249,11.018,11.458C96.217,44.527,91.357,49.682,85.538,49.877L85.538,49.877z"/>
</g>
<g>
	<path fill="#C6C6C6" d="M67.78,41.276c-0.248-0.731-0.373-1.514-0.373-2.346c0-0.654,0.148-1.314,0.445-1.982
		c0.298-0.668,1.055-1.592,2.272-2.771c1.25-1.178,2.014-2.065,2.295-2.658c0.282-0.594,0.425-1.158,0.425-1.693
		c0-0.951-0.338-1.701-1.012-2.25c-0.673-0.549-1.529-0.824-2.568-0.824c-1.812,0-3.397,0.713-4.753,2.138v-3.044
		c1.654-1.029,3.372-1.544,5.153-1.544c1.822,0,3.287,0.461,4.39,1.38c1.104,0.921,1.655,2.178,1.655,3.773
		c0,0.762-0.163,1.537-0.489,2.323c-0.327,0.787-1.179,1.834-2.555,3.142c-1.04,0.981-1.738,1.749-2.094,2.303
		c-0.357,0.555-0.537,1.154-0.537,1.796c0,0.722,0.174,1.475,0.521,2.257H67.78z M67.408,46.133c0-0.515,0.188-0.958,0.564-1.329
		c0.375-0.37,0.826-0.558,1.352-0.558c0.525,0,0.975,0.188,1.352,0.558c0.375,0.371,0.563,0.814,0.563,1.329
		c0,0.497-0.185,0.928-0.556,1.3c-0.371,0.373-0.8,0.558-1.285,0.558c-0.594,0-1.073-0.188-1.441-0.563
		C67.592,47.051,67.408,46.619,67.408,46.133z"/>
</g>
</svg>
